<svg width="22" height="22" viewBox="0 0 22 22" fill="none" xmlns="http://www.w3.org/2000/svg">
<path fill-rule="evenodd" clip-rule="evenodd" d="M0.13673 7.43717C0 8.2126 0 9.14174 0 11C0 12.8583 0 13.7874 0.13673 14.5628C0.793743 18.2889 3.71106 21.2063 7.43717 21.8633C8.2126 22 9.14174 22 11 22H16.5C18.8456 22 20.0184 22 20.8263 21.3801C21.0343 21.2205 21.2205 21.0343 21.3801 20.8263C22 20.0184 22 18.8456 22 16.5V11C22 9.14174 22 8.2126 21.8633 7.43717C21.2063 3.71106 18.2889 0.793743 14.5628 0.13673C13.7874 0 12.8583 0 11 0C9.14174 0 8.2126 0 7.43717 0.13673C3.71106 0.793743 0.793743 3.71106 0.13673 7.43717ZM6.33362 9.7778C6.33362 9.22551 6.78133 8.7778 7.33362 8.7778H14.667C15.2192 8.7778 15.667 9.22551 15.667 9.7778C15.667 10.3301 15.2192 10.7778 14.667 10.7778H7.33362C6.78133 10.7778 6.33362 10.3301 6.33362 9.7778ZM10.0002 14.6667C10.0002 14.1145 10.448 13.6667 11.0002 13.6667H14.6669C15.2192 13.6667 15.6669 14.1145 15.6669 14.6667C15.6669 15.219 15.2192 15.6667 14.6669 15.6667H11.0002C10.448 15.6667 10.0002 15.219 10.0002 14.6667Z" fill="#7FB6A5"/>
</svg>
