<svg width="28" height="28" viewBox="0 0 28 28" fill="none" xmlns="http://www.w3.org/2000/svg">
<path fill-rule="evenodd" clip-rule="evenodd" d="M0 14C0 6.26801 6.26801 0 14 0C21.732 0 28 6.26801 28 14C28 21.732 21.732 28 14 28C6.26801 28 0 21.732 0 14ZM7 14C7 10.15 10.15 7 14 7C17.85 7 21 10.15 20.9125 13.65C20.9125 17.5 17.7625 20.65 13.9125 20.65C13.2125 20.65 12.5125 20.5625 11.9 20.3875C12.1625 19.95 12.425 19.425 12.6 18.9C12.6875 18.55 13.125 16.975 13.125 16.975C13.3875 17.4125 14.0875 17.85 14.875 17.85C17.15 17.85 18.6375 15.75 18.6375 13.0375C18.6375 10.9375 16.8875 9.0125 14.175 9.0125C10.85 9.0125 9.1875 11.375 9.1875 13.3875C9.1875 14.6125 9.62501 15.6625 10.5875 16.1C10.7625 16.1875 10.85 16.1 10.9375 15.925C11.025 15.8375 11.1125 15.4875 11.1125 15.4C11.1744 15.2763 11.1487 15.24 11.0975 15.1675C11.0763 15.1375 11.0506 15.1013 11.025 15.05C10.7625 14.7 10.5875 14.2625 10.5875 13.65C10.5875 11.9 11.9 10.325 14 10.325C15.8375 10.325 16.8875 11.4625 16.8875 13.0375C16.8875 15.1375 16.0125 16.8 14.7 16.8C13.9125 16.8 13.3875 16.1875 13.5625 15.4875C13.6355 15.1223 13.7543 14.7418 13.868 14.3778C14.0265 13.8699 14.175 13.3943 14.175 13.0375C14.175 12.425 13.825 11.9875 13.2125 11.9875C12.5125 11.9875 11.9 12.775 11.9 13.825C11.9 14.525 12.1625 14.9625 12.1625 14.9625C12.1625 14.9625 11.4625 18.2 11.2875 18.8125C11.2 19.3375 11.2 19.8624 11.2 20.3874C8.75 19.3374 7 16.8875 7 14Z" fill="black"/>
</svg>
