<svg width="28" height="28" viewBox="0 0 28 28" fill="none" xmlns="http://www.w3.org/2000/svg">
<path fill-rule="evenodd" clip-rule="evenodd" d="M28 14C28 21.732 21.732 28 14 28C6.26801 28 0 21.732 0 14C0 6.26801 6.26801 0 14 0C21.732 0 28 6.26801 28 14ZM14.1537 5.26298C18.1987 5.28089 20.0146 6.59917 20.464 7.01382C21.9563 8.30713 22.782 11.1765 22.2254 15.7129C21.7344 19.7211 18.941 20.4313 18.0035 20.6696C17.9115 20.693 17.8374 20.7118 17.7851 20.7288C17.5317 20.8113 15.3 21.3695 12.3983 21.1253C12.0781 21.4976 11.6531 21.9847 11.3454 22.3163C11.2526 22.4162 11.1658 22.5149 11.0828 22.6093C10.6641 23.0854 10.343 23.4505 9.8529 23.2983C9.36743 23.148 9.39457 22.4107 9.39457 22.4107L9.39728 20.5896H9.39321C5.15044 19.3961 5.21258 14.9946 5.26062 12.646C5.30865 10.2973 5.764 8.40293 7.0584 7.10825C9.38371 4.97533 14.1537 5.26298 14.1537 5.26298ZM17.5249 19.3993C18.3251 19.2131 20.546 18.6964 20.9557 15.3875V15.3865C21.426 11.5974 20.7829 9.01105 19.5205 7.93021C19.1403 7.58504 17.5007 6.55467 14.0791 6.53974C14.0791 6.53974 10.0274 6.27354 8.06054 8.05504C6.96586 9.13588 6.59735 10.7429 6.55665 12.7046L6.5522 12.9047C6.50626 14.9108 6.42532 18.4454 9.89577 19.4089C9.89577 19.4089 9.88166 22.1909 9.88004 22.4351C9.87895 22.6061 9.90609 22.723 10.0049 22.7472C10.0751 22.7651 10.1804 22.7287 10.27 22.6386C10.8436 22.0625 12.6802 19.8469 12.6802 19.8469C15.145 20.0078 17.1051 19.5201 17.3159 19.4523C17.3653 19.4365 17.4364 19.4199 17.5249 19.3993ZM14.1606 11.1146C14.169 10.9538 14.3062 10.8302 14.4671 10.8386C14.9497 10.8637 15.3595 11.0104 15.6535 11.3144C15.9461 11.6169 16.0859 12.036 16.1103 12.5289C16.1183 12.6898 15.9944 12.8267 15.8335 12.8347C15.6726 12.8427 15.5357 12.7187 15.5277 12.5578C15.5077 12.1536 15.3973 11.8886 15.2342 11.7199C15.0725 11.5527 14.821 11.4412 14.4367 11.4211C14.2758 11.4127 14.1522 11.2755 14.1606 11.1146ZM14.1258 9.61126C13.9652 9.59951 13.8254 9.72021 13.8137 9.88086C13.8019 10.0415 13.9226 10.1813 14.0833 10.193C14.942 10.2559 15.5798 10.5424 16.0346 11.0389C16.4918 11.5386 16.7174 12.1616 16.7008 12.9305C16.6973 13.0915 16.825 13.2249 16.9861 13.2284C17.1471 13.2319 17.2805 13.1042 17.284 12.9431C17.3035 12.0404 17.034 11.2669 16.4648 10.645L16.4647 10.6449C15.8884 10.0158 15.0988 9.68247 14.1258 9.61126ZM13.4096 8.71343C13.4107 8.55235 13.5422 8.42268 13.7032 8.42381C15.0459 8.43316 16.184 8.88074 17.0974 9.77117C18.0204 10.671 18.4741 11.8941 18.4856 13.4046C18.4868 13.5657 18.3572 13.6972 18.1961 13.6985C18.035 13.6997 17.9035 13.5701 17.9022 13.409C17.8917 12.0188 17.4786 10.9574 16.6902 10.1889C15.8922 9.41096 14.9019 9.0155 13.6992 9.00712C13.5381 9.006 13.4084 8.87451 13.4096 8.71343ZM14.9916 15.4211C14.8185 15.6344 14.4969 15.6073 14.4969 15.6073C12.1467 15.0073 11.5176 12.6266 11.5176 12.6266C11.5176 12.6266 11.4894 12.3051 11.7038 12.1319L12.1285 11.7944C12.3391 11.6321 12.4734 11.2383 12.259 10.8538C12.0946 10.5652 11.9158 10.285 11.7233 10.0142C11.5364 9.75887 11.1008 9.23596 11.0992 9.23433C10.8892 8.98657 10.5803 8.92904 10.2547 9.09865C10.2537 9.09865 10.2524 9.09908 10.2511 9.09951C10.2499 9.0999 10.2487 9.10027 10.2479 9.10027C9.92405 9.28688 9.63202 9.52396 9.38282 9.80256C9.38197 9.80426 9.38112 9.80507 9.38027 9.80589C9.3795 9.80663 9.37872 9.80737 9.37794 9.8088C9.17677 10.0516 9.06162 10.2895 9.03249 10.5225C9.02645 10.5569 9.02435 10.5918 9.02625 10.6267C9.02517 10.7297 9.04084 10.8321 9.07265 10.9301L9.08378 10.9377C9.18527 11.298 9.43927 11.8983 9.99122 12.8991C10.3069 13.4779 10.671 14.0291 11.0797 14.5465C11.2844 14.8059 11.5038 15.0534 11.7369 15.2876C11.7453 15.296 11.7535 15.3045 11.7619 15.3126L11.7868 15.3378L11.8118 15.3628L11.8368 15.3878C12.071 15.6208 12.3185 15.8403 12.5779 16.045C13.0954 16.4537 13.6466 16.8178 14.2256 17.1334C15.2261 17.6854 15.8269 17.9394 16.1867 18.0409L16.1943 18.052C16.2922 18.0839 16.3947 18.0997 16.4977 18.0987C16.5326 18.1004 16.5675 18.0982 16.6019 18.0922C16.8355 18.0645 17.0733 17.9495 17.3153 17.7473C17.3183 17.7456 17.3183 17.744 17.3216 17.7424C17.6002 17.4931 17.8373 17.2011 18.0241 16.8773C18.0241 16.8757 18.0255 16.8724 18.0255 16.8705C18.1951 16.5449 18.1376 16.236 17.8884 16.0257C17.8881 16.0257 17.8678 16.009 17.8334 15.9806C17.6922 15.8643 17.3139 15.5526 17.1085 15.4016C16.8381 15.2092 16.5581 15.0304 16.2698 14.8659C15.885 14.6516 15.492 14.7859 15.3292 14.9965L14.9916 15.4211Z" fill="black"/>
</svg>
