<svg width="141" height="33" viewBox="0 0 141 33" fill="none" xmlns="http://www.w3.org/2000/svg">
<path d="M58.3807 3.9191H54.2768C54.0559 3.9191 53.9296 4.07575 53.9296 4.20107V20.6183C53.9296 23.156 51.5935 24.3779 49.2259 24.3779C46.8898 24.3779 44.8063 23.0621 44.5222 20.5869V8.46203H39.7554V20.6183C39.7554 25.7878 44.0171 28.9835 49.2259 28.9835C54.5925 28.9835 58.6964 25.9131 58.6964 20.6183V4.20107C58.6964 4.07575 58.5386 3.9191 58.3807 3.9191Z" fill="#3C434E"/>
<path d="M81.9944 28.6075L72.3976 4.10699C72.3029 3.85635 71.861 3.85635 71.7662 4.10699L62.201 28.6075C62.1063 28.7955 62.2326 28.9834 62.5167 28.9834H66.8416C66.9678 28.9834 67.1257 28.9208 67.1573 28.7955L72.0819 14.822L77.0697 28.7955C77.1013 28.9208 77.2592 28.9834 77.3539 28.9834H81.7103C81.9313 28.9834 82.0891 28.7955 81.9944 28.6075Z" fill="#3C434E"/>
<path d="M100.272 14.1328H90.3593V8.46194H97.5253V3.91901H85.8765C85.6871 3.91901 85.5293 4.07566 85.5293 4.20098V28.7015C85.5293 28.8268 85.6871 28.9834 85.8765 28.9834H90.3593V18.6757H100.272C100.461 18.6757 100.619 18.519 100.619 18.3937V14.4147C100.619 14.2581 100.461 14.1328 100.272 14.1328Z" fill="#7FB6A5"/>
<path d="M114.194 24.6912H111.669V3.9191H106.839V24.6912H104.25C104.061 24.6912 103.903 24.8166 103.903 24.9732V28.7016C103.903 28.8269 104.061 28.9835 104.25 28.9835H114.194C114.415 28.9835 114.541 28.8269 114.541 28.7016V24.9732C114.541 24.8166 114.415 24.6912 114.194 24.6912Z" fill="#7FB6A5"/>
<path d="M140.617 3.9191H135.566C135.503 3.9191 135.314 3.95043 135.282 4.01309L129.316 12.3783L126.664 8.71267H120.792C122.655 11.3131 124.486 13.9135 126.348 16.4513L117.698 28.5136C117.509 28.7329 117.635 28.9835 117.951 28.9835H123.002C123.065 28.9835 123.254 28.9522 123.286 28.8895L129.316 20.5243L131.936 24.19H137.807C135.945 21.5895 134.082 18.9891 132.22 16.4513L140.933 4.38906C141.091 4.16974 140.964 3.9191 140.617 3.9191Z" fill="#7FB6A5"/>
<path fill-rule="evenodd" clip-rule="evenodd" d="M33.5288 14.2846C33.6102 14.4264 33.6102 14.5683 33.5288 14.7101C32.5209 16.4469 26.0493 27.5771 25.2986 28.8531C25.2525 28.9594 25.1829 29.0302 25.0993 29.0656C24.0375 29.5619 16.7431 33 16.7431 33C16.7431 33 16.7484 30.4833 16.7509 29.4554C16.7509 29.3136 16.7031 29.2075 16.6173 29.1366C16.532 29.0303 16.4156 28.9947 16.2945 28.9947H8.62575C8.46289 28.9947 8.31217 28.8885 8.23074 28.7821C7.24572 27.0807 1.04593 16.4115 0.0612717 14.7101C-0.0201607 14.5683 -0.0201607 14.4264 0.0612717 14.2846C1.04593 12.5832 7.24572 1.91394 8.23074 0.212537C8.31217 0.0707533 8.46289 0 8.62575 0L24.9643 0C25.1272 0 25.2779 0.0707533 25.3593 0.212537C26.3443 1.91394 32.5438 12.5832 33.5288 14.2846Z" fill="#7FB6A5"/>
<path d="M15.5863 10.1699H9.43213L11.0034 20.6964H17.1576L15.5863 10.1699Z" fill="#3C434E"/>
<path d="M18.3624 5.97144H24.5166L22.9453 16.4979H16.7911L18.3624 5.97144Z" fill="#3C434E"/>
</svg>
